<svg height="512pt" viewBox="0 -63 512.001 512" width="512pt" xmlns="http://www.w3.org/2000/svg"><path d="m490.765625 0h-469.527344c-11.710937 0-21.238281 9.527344-21.238281 21.238281v281.652344c0 11.710937 9.527344 21.238281 21.238281 21.238281h10.574219l4.445312 16.136719c2.097657 7.609375 9.074219 12.921875 16.96875 12.921875h23.699219v16.75c0 9.175781 7.460938 16.640625 16.636719 16.640625h39.433594c9.175781 0 16.640625-7.464844 16.640625-16.640625v-16.75h151.429687c4.144532 0 7.503906-3.359375 7.503906-7.503906 0-4.148438-3.359374-7.507813-7.503906-7.507813h-247.839844c-1.160156 0-2.1875-.78125-2.496093-1.898437l-3.34375-12.148438h416.921875l-3.34375 12.148438c-.308594 1.117187-1.335938 1.898437-2.496094 1.898437h-122.582031c-4.148438 0-7.507813 3.359375-7.507813 7.507813 0 4.144531 3.359375 7.503906 7.507813 7.503906h25.875v16.75c0 9.175781 7.464843 16.640625 16.636719 16.640625h39.433593c9.175781 0 16.640625-7.464844 16.640625-16.640625v-16.75h23.996094c7.894531 0 14.871094-5.3125 16.96875-12.921875l4.445312-16.136719h10.882813c11.707031 0 21.234375-9.527344 21.234375-21.238281v-281.652344c0-11.710937-9.527344-21.238281-21.234375-21.238281zm-356.140625 353.1875v16.75c0 .898438-.730469 1.628906-1.628906 1.628906h-39.433594c-.898438 0-1.628906-.730468-1.628906-1.628906v-16.75zm284.835938 16.75c0 .898438-.726563 1.628906-1.625 1.628906h-39.4375c-.894532 0-1.625-.730468-1.625-1.628906v-16.75h42.6875zm77.527343-67.046875c0 3.433594-2.792969 6.226563-6.226562 6.226563h-469.523438c-3.433593 0-6.226562-2.792969-6.226562-6.226563v-281.652344c0-3.433593 2.792969-6.226562 6.226562-6.226562h469.527344c3.429687 0 6.222656 2.792969 6.222656 6.226562zm0 0"/><path d="m453.4375 36.988281h-310.574219c-4.148437 0-7.507812 3.359375-7.507812 7.507813 0 4.144531 3.359375 7.503906 7.507812 7.503906h310.574219c1.472656 0 2.667969 1.199219 2.667969 2.667969v214.792969c0 1.472656-1.195313 2.667968-2.667969 2.667968h-394.875c-1.472656 0-2.667969-1.195312-2.667969-2.667968v-214.792969c0-1.46875 1.195313-2.667969 2.667969-2.667969h50.273438c4.148437 0 7.507812-3.359375 7.507812-7.503906 0-4.148438-3.359375-7.507813-7.507812-7.507813h-50.273438c-9.746094 0-17.679688 7.933594-17.679688 17.679688v214.792969c0 9.75 7.933594 17.679687 17.679688 17.679687h394.875c9.75 0 17.679688-7.929687 17.679688-17.679687v-214.792969c0-9.746094-7.929688-17.679688-17.679688-17.679688zm0 0"/><path d="m433.882812 162.066406c0-48.210937-39.21875-87.433594-87.433593-87.433594-48.210938 0-87.433594 39.222657-87.433594 87.433594 0 48.210938 39.222656 87.429688 87.433594 87.429688 48.210937.003906 87.433593-39.21875 87.433593-87.429688zm-159.855468 0c0-39.933594 32.488281-72.421875 72.421875-72.421875 39.933593 0 72.421875 32.488281 72.421875 72.421875s-32.488282 72.417969-72.421875 72.417969c-39.933594 0-72.421875-32.484375-72.421875-72.417969zm0 0"/><path d="m397.988281 162.066406c0-14.003906-5.621093-26.714844-14.71875-36.011718-.054687-.066407-.105469-.136719-.164062-.199219-.246094-.273438-.511719-.515625-.785157-.746094-9.285156-9.015625-21.9375-14.582031-35.871093-14.582031-28.417969 0-51.535157 23.121094-51.535157 51.539062 0 28.414063 23.121094 51.535156 51.535157 51.535156 28.417969 0 51.539062-23.121093 51.539062-51.535156zm-88.0625 0c0-20.140625 16.382813-36.527344 36.523438-36.527344 7.171875 0 13.863281 2.085938 19.511719 5.671876l-11.210938 10.113281c-3.078125 2.777343-3.320312 7.523437-.542969 10.601562 1.480469 1.640625 3.523438 2.476563 5.574219 2.476563 1.792969 0 3.589844-.636719 5.023438-1.929688l11.949218-10.777344c3.925782 5.820313 6.222656 12.832032 6.222656 20.371094 0 20.140625-16.386718 36.523438-36.527343 36.523438s-36.523438-16.386719-36.523438-36.523438zm0 0"/><path d="m239.574219 89.089844c0-7.972656-6.484375-14.457032-14.457031-14.457032h-132.542969c-7.972657 0-14.457031 6.484376-14.457031 14.457032v30.128906c0 7.972656 6.484374 14.457031 14.457031 14.457031h132.542969c7.96875 0 14.457031-6.484375 14.457031-14.457031zm-15.011719 29.574218h-131.433594v-29.019531h131.433594zm0 0"/><path d="m101.265625 143.859375c-12.765625 0-23.148437 10.382813-23.148437 23.148437 0 12.765626 10.382812 23.148438 23.148437 23.148438s23.148437-10.382812 23.148437-23.148438c0-12.765624-10.382812-23.148437-23.148437-23.148437zm0 31.285156c-4.488281 0-8.136719-3.648437-8.136719-8.136719 0-4.488281 3.648438-8.136718 8.136719-8.136718s8.136719 3.648437 8.136719 8.136718c0 4.488282-3.648438 8.136719-8.136719 8.136719zm0 0"/><path d="m158.84375 143.859375c-12.761719 0-23.148438 10.382813-23.148438 23.148437 0 12.765626 10.386719 23.148438 23.148438 23.148438 12.765625 0 23.152344-10.382812 23.152344-23.148438 0-12.765624-10.386719-23.148437-23.152344-23.148437zm0 31.285156c-4.484375 0-8.136719-3.648437-8.136719-8.136719 0-4.488281 3.652344-8.136718 8.136719-8.136718 4.488281 0 8.140625 3.648437 8.140625 8.136718 0 4.488282-3.652344 8.136719-8.140625 8.136719zm0 0"/><path d="m216.425781 143.859375c-12.765625 0-23.148437 10.382813-23.148437 23.148437 0 12.765626 10.382812 23.148438 23.148437 23.148438s23.148438-10.382812 23.148438-23.148438c0-12.765624-10.382813-23.148437-23.148438-23.148437zm0 31.285156c-4.488281 0-8.136719-3.648437-8.136719-8.136719 0-4.488281 3.648438-8.136718 8.136719-8.136718s8.136719 3.648437 8.136719 8.136718c0 4.488282-3.648438 8.136719-8.136719 8.136719zm0 0"/><path d="m101.265625 203.199219c-12.765625 0-23.148437 10.386719-23.148437 23.152343 0 12.761719 10.382812 23.148438 23.148437 23.148438s23.148437-10.386719 23.148437-23.148438c0-12.765624-10.382812-23.152343-23.148437-23.152343zm0 31.289062c-4.488281 0-8.136719-3.652343-8.136719-8.136719 0-4.488281 3.648438-8.140624 8.136719-8.140624s8.136719 3.652343 8.136719 8.140624c0 4.484376-3.648438 8.136719-8.136719 8.136719zm0 0"/><path d="m158.84375 203.199219c-12.761719 0-23.148438 10.386719-23.148438 23.152343 0 12.761719 10.386719 23.148438 23.148438 23.148438 12.765625 0 23.152344-10.386719 23.152344-23.148438 0-12.765624-10.386719-23.152343-23.152344-23.152343zm0 31.289062c-4.484375 0-8.136719-3.652343-8.136719-8.136719 0-4.488281 3.652344-8.140624 8.136719-8.140624 4.488281 0 8.140625 3.652343 8.140625 8.140624 0 4.484376-3.652344 8.136719-8.140625 8.136719zm0 0"/><path d="m216.425781 203.199219c-12.765625 0-23.148437 10.386719-23.148437 23.152343 0 12.761719 10.382812 23.148438 23.148437 23.148438s23.148438-10.386719 23.148438-23.148438c0-12.765624-10.382813-23.152343-23.148438-23.152343zm0 31.289062c-4.488281 0-8.136719-3.652343-8.136719-8.136719 0-4.488281 3.648438-8.140624 8.136719-8.140624s8.136719 3.652343 8.136719 8.140624c0 4.484376-3.648438 8.136719-8.136719 8.136719zm0 0"/></svg>